<svg id="Layer_1" data-name="Layer 1" xmlns="http://www.w3.org/2000/svg" viewBox="0 0 204.43 143.29"><defs><style>.cls-1{fill:none;stroke:#da261c;stroke-miterlimit:10;stroke-width:6px;}</style></defs><path class="cls-1" d="M10.36,3h3.29A7.36,7.36,0,0,1,21,10.36v125a5,5,0,0,1-5,5H7.61A4.61,4.61,0,0,1,3,135.68V10.36A7.36,7.36,0,0,1,10.36,3Z"/><path class="cls-1" d="M390.25,437.29H216.79v37.14H390.68a6.55,6.55,0,0,0,6.53-6.54V444.25A7,7,0,0,0,390.25,437.29Z" transform="translate(-195.79 -348.86)"/><path class="cls-1" d="M371.79,474.43v11.11a3.61,3.61,0,0,0,3.6,3.6h9.93a3.61,3.61,0,0,0,3.61-3.6V474.43Z" transform="translate(-195.79 -348.86)"/><path class="cls-1" d="M216.79,437.29H390.25a7,7,0,0,1,2.48.46,14.21,14.21,0,0,0-13.9-11.46H217.74c-.32,0-.63,0-1,0Z" transform="translate(-195.79 -348.86)"/><rect class="cls-1" x="21" y="57.14" width="39.64" height="19.29" rx="9.64"/></svg>