<svg id="Layer_1" data-name="Layer 1" xmlns="http://www.w3.org/2000/svg" viewBox="0 0 88.04 88.04"><defs><style>.cls-1{fill:none;stroke:#1f1a18;stroke-linecap:round;stroke-linejoin:round;stroke-width:3px;}</style></defs><circle class="cls-1" cx="44.02" cy="44.02" r="42.52"/><circle class="cls-1" cx="44.02" cy="44.02" r="36.85"/><polyline class="cls-1" points="44.02 21.06 44.02 44.02 53.39 53.06"/><line class="cls-1" x1="44.02" y1="80.87" x2="44.02" y2="73.78"/><line class="cls-1" x1="44.02" y1="14.26" x2="44.02" y2="7.17"/><line class="cls-1" x1="7.34" y1="44.02" x2="14.43" y2="44.02"/><line class="cls-1" x1="73.78" y1="44.02" x2="80.87" y2="44.02"/><line class="cls-1" x1="62.46" y1="75.98" x2="58.91" y2="69.84"/><line class="cls-1" x1="29.15" y1="18.29" x2="25.61" y2="12.15"/><line class="cls-1" x1="12.27" y1="62.4" x2="18.41" y2="58.86"/><line class="cls-1" x1="69.81" y1="29.18" x2="75.94" y2="25.64"/><line class="cls-1" x1="75.95" y1="62.53" x2="69.82" y2="58.98"/><line class="cls-1" x1="18.27" y1="29.22" x2="12.13" y2="25.68"/><line class="cls-1" x1="25.7" y1="75.86" x2="29.25" y2="69.73"/><line class="cls-1" x1="58.92" y1="18.32" x2="62.47" y2="12.19"/></svg>