<svg id="Layer_1" data-name="Layer 1" xmlns="http://www.w3.org/2000/svg" viewBox="0 0 162.91 144.29"><defs><style>.cls-1,.cls-2,.cls-3,.cls-4{fill:none;stroke:#da261c;stroke-miterlimit:10;}.cls-1{stroke-width:7px;}.cls-2{stroke-width:4px;}.cls-3,.cls-4{stroke-width:5px;}.cls-4{stroke-linecap:round;}</style></defs><rect class="cls-1" x="3.5" y="12.93" width="155.91" height="127.86" rx="5.64"/><line class="cls-1" x1="3.5" y1="51.5" x2="159.41" y2="51.5"/><path class="cls-1" d="M401.36,393.93V388.5a4,4,0,0,0-4-4H361.64a4,4,0,0,0-4,4v5.43Z" transform="translate(-336.4 -381)"/><path class="cls-1" d="M480.07,393.93V388.5a4,4,0,0,0-4-4H440.36a4,4,0,0,0-4,4v5.43Z" transform="translate(-336.4 -381)"/><rect class="cls-2" x="18.74" y="23.64" width="17.14" height="17.14" rx="8.57"/><rect class="cls-2" x="54.83" y="23.64" width="17.14" height="17.14" rx="8.57"/><rect class="cls-2" x="90.93" y="23.64" width="17.14" height="17.14" rx="8.57"/><rect class="cls-2" x="127.02" y="23.64" width="17.14" height="17.14" rx="8.57"/><rect class="cls-3" x="25.76" y="80.93" width="112.39" height="45.68" rx="12.25"/><line class="cls-4" x1="25.76" y1="66.21" x2="135.59" y2="66.21"/></svg>