<svg id="Layer_1" data-name="Layer 1" xmlns="http://www.w3.org/2000/svg" viewBox="0 0 59.71 95.15"><defs><style>.cls-1{fill:#fff;}.cls-2{fill:#1f1a18;}.cls-3{fill:#fdfdfd;stroke-linejoin:round;stroke-width:1.5px;}.cls-3,.cls-4{stroke:#1f1a18;stroke-linecap:round;}.cls-4{fill:none;stroke-miterlimit:10;stroke-width:3px;}</style></defs><path class="cls-1" d="M269.64,374.43h53a3.72,3.72,0,0,1,3.72,3.71v77.57a3.73,3.73,0,0,1-3.72,3.72H273.36a3.73,3.73,0,0,1-3.72-3.72V374.43" transform="translate(-268.14 -372.93)"/><path class="cls-2" d="M321.29,460.93H274.71a6.58,6.58,0,0,1-6.57-6.58V379.5a6.57,6.57,0,0,1,6.57-6.57h46.58a6.57,6.57,0,0,1,6.57,6.57v74.85A6.58,6.58,0,0,1,321.29,460.93Zm-45.08-3h43.58a5.08,5.08,0,0,0,5.07-5.08V381a5.07,5.07,0,0,0-5.07-5.07H276.21a5.07,5.07,0,0,0-5.07,5.07v71.85A5.08,5.08,0,0,0,276.21,457.93Z" transform="translate(-268.14 -372.93)"/><path class="cls-3" d="M305.69,467.32v-23.7H314v23.7m0,0-4.16-6.24-4.16,6.24m8.32,0" transform="translate(-268.14 -372.93)"/><polygon class="cls-3" points="41.71 63.63 43.08 68.59 46.91 65.43 45.29 70.31 50.13 70.16 46.14 73.09 50.13 76.01 45.29 75.87 46.91 80.74 43.08 77.59 41.71 82.55 40.34 77.59 36.51 80.74 38.13 75.87 33.29 76.01 37.28 73.09 33.29 70.16 38.13 70.31 36.51 65.43 40.34 68.59 41.71 63.63"/><line class="cls-4" x1="9.51" y1="16.77" x2="41.71" y2="16.77"/><line class="cls-4" x1="9.51" y1="26.81" x2="41.71" y2="26.81"/><line class="cls-4" x1="9.51" y1="36.85" x2="41.71" y2="36.85"/><line class="cls-4" x1="9.51" y1="46.9" x2="41.71" y2="46.9"/></svg>