<svg id="Layer_1" data-name="Layer 1" xmlns="http://www.w3.org/2000/svg" viewBox="0 0 191.9 118.43"><defs><style>.cls-1{fill:none;}.cls-1,.cls-2{stroke:#da261c;stroke-miterlimit:10;stroke-width:5px;}.cls-2{fill:#fdfdfd;}</style></defs><path class="cls-1" d="M58,2.5h75.15a34,34,0,0,1,34,34V66.33A14.17,14.17,0,0,1,153,80.5H38.19A14.17,14.17,0,0,1,24,66.33V36.5A34,34,0,0,1,58,2.5Z"/><path class="cls-1" d="M285.7,321.28a5.81,5.81,0,0,0-.05.72v12.57a5.58,5.58,0,0,0,5.57,5.57h5.43a5.58,5.58,0,0,0,5.57-5.57V322a5.81,5.81,0,0,0-.05-.72Z" transform="translate(-128.19 -224.21)"/><path class="cls-1" d="M148,321.28a5.81,5.81,0,0,0-.05.72v12.57a5.58,5.58,0,0,0,5.57,5.57h5.43a5.58,5.58,0,0,0,5.57-5.57V322a5.81,5.81,0,0,0-.05-.72Z" transform="translate(-128.19 -224.21)"/><rect class="cls-2" x="24.01" y="65.86" width="141.73" height="36.19" rx="7.92"/><path class="cls-2" d="M6.77,45.35H11A14.17,14.17,0,0,1,25.18,59.53V97.81A4.23,4.23,0,0,1,20.94,102H6.75A4.25,4.25,0,0,1,2.5,97.79V49.62a4.27,4.27,0,0,1,4.27-4.27Z"/><path class="cls-2" d="M299.17,269.57h14.19a4.23,4.23,0,0,1,4.23,4.23v38.29a14.17,14.17,0,0,1-14.17,14.17h-4.24a4.27,4.27,0,0,1-4.27-4.27V273.82A4.25,4.25,0,0,1,299.17,269.57Z" transform="translate(484.31 371.61) rotate(-180)"/></svg>