<svg id="Layer_1" data-name="Layer 1" xmlns="http://www.w3.org/2000/svg" viewBox="0 0 137.29 137.29"><defs><style>.cls-1{fill:#da261c;}</style></defs><path class="cls-1" d="M481.73,458.17l4.77-5-4.77-5,3.92-5.72-5.5-4.21,3-6.26-6.09-3.3,2-6.65-6.54-2.31.91-6.87-6.82-1.27-.18-6.92-6.92-.18-1.27-6.82-6.87.91L449,392l-6.65,2-3.3-6.09-6.26,3-4.21-5.5-5.72,3.92-5-4.77-5,4.77-5.71-3.92-4.22,5.5-6.25-3L393.34,394l-6.65-2-2.31,6.54-6.87-.91-1.26,6.82-6.93.18-.18,6.92-6.82,1.27.91,6.87L356.7,422l2,6.65-6.1,3.3,3,6.26-5.5,4.21,3.93,5.72-4.78,5,4.78,5-3.93,5.71,5.5,4.22-3,6.25,6.1,3.31-2,6.65,6.53,2.31-.91,6.87,6.82,1.26.18,6.93,6.93.18,1.26,6.82,6.87-.91,2.31,6.53,6.65-2,3.31,6.1,6.25-3,4.22,5.5,5.71-3.93,5,4.78,5-4.78,5.72,3.93,4.21-5.5,6.26,3,3.3-6.1,6.65,2,2.31-6.53,6.87.91,1.27-6.82,6.92-.18.18-6.93,6.82-1.26-.91-6.87,6.54-2.31-2-6.65,6.09-3.31-3-6.25,5.5-4.22Zm-91,10.3h-5.37l-11.64-19.58-.87-1.46c-.18-.3-.46-.77-.83-1.42v22.46h-4.45V437.81h6.11l10.74,18.06,1.95,3.3V437.81h4.36Zm31.26,0H402.06V437.81h19.72v4.56h-14.2v8.31H419v4.45H407.58v8.58H422Zm38,0h-5.8l-6.11-22.55-5.55,22.55h-5.68l-8.38-30.66h5.87l5.93,22.35,5.52-22.35h5.59l6.11,22.35,5.82-22.35h4.87Z" transform="translate(-349.21 -384.5)"/></svg>