<svg id="Layer_1" data-name="Layer 1" xmlns="http://www.w3.org/2000/svg" viewBox="0 0 137.29 137.29"><defs><style>.cls-1{fill:#da261c;}</style></defs><path class="cls-1" d="M417.86,391.4l1.58,1.5,2.94,2.79,3.34-2.3,1.8-1.23,1.33,1.73,2.46,3.21,3.66-1.74,2-.94,1,1.92,1.93,3.56,3.89-1.15,2.09-.62.73,2.05L448,404l4-.53,2.16-.28.4,2.15.74,4,4,.1,2.18.06.06,2.18.1,4,4,.74,2.15.4-.28,2.16-.53,4,3.82,1.35,2.05.73-.62,2.09-1.15,3.89,3.56,1.93,1.92,1-.94,2-1.74,3.66,3.21,2.46,1.73,1.33-1.23,1.8-2.3,3.34,2.79,2.94,1.5,1.58-1.5,1.59-2.79,2.93,2.3,3.34,1.23,1.8-1.73,1.33-3.21,2.47,1.74,3.65.94,2-1.92,1-3.56,1.93,1.15,3.88.62,2.1-2.05.72L467,483.25l.53,4,.28,2.17-2.15.39-4,.74-.1,4.05-.06,2.18-2.18.06-4,.11-.74,4-.4,2.15-2.16-.29-4-.53-1.35,3.82-.73,2.06-2.09-.62-3.89-1.15L438,510l-1,1.92-2-.94-3.66-1.75-2.46,3.22-1.33,1.73-1.8-1.24-3.34-2.29-2.94,2.79-1.58,1.5-1.59-1.5-2.93-2.79L410,512.89l-1.8,1.24-1.33-1.73-2.47-3.22-3.65,1.75-2,.94-1-1.92-1.93-3.56-3.88,1.15-2.1.62-.72-2.06-1.35-3.82-4,.53-2.17.29-.39-2.15-.74-4-4.05-.11-2.18-.06-.06-2.18-.11-4.05-4-.74-2.15-.39.29-2.17.53-4-3.82-1.35-2.06-.72.62-2.1,1.15-3.88-3.56-1.93-1.92-1,.94-2,1.75-3.65-3.22-2.47-1.73-1.33,1.24-1.8,2.29-3.34-2.79-2.93-1.5-1.59,1.5-1.58,2.79-2.94-2.29-3.34-1.24-1.8,1.73-1.33,3.22-2.46L360.07,436l-.94-2,1.92-1,3.56-1.93-1.15-3.89-.62-2.09,2.06-.73,3.82-1.35-.53-4-.29-2.16,2.15-.4,4-.74.11-4,.06-2.18,2.18-.06,4.05-.1.74-4,.39-2.15,2.17.28,4,.53,1.35-3.82.72-2.05,2.1.62,3.88,1.15,1.93-3.56,1-1.92,2,.94,3.65,1.74,2.47-3.21,1.33-1.73,1.8,1.23,3.34,2.3,2.93-2.79,1.59-1.5m0-6.9-5,4.77-5.71-3.92-4.22,5.5-6.25-3L393.34,394l-6.65-2-2.31,6.54-6.87-.91-1.26,6.82-6.93.18-.18,6.92-6.82,1.27.91,6.87L356.7,422l2,6.65-6.1,3.3,3,6.26-5.5,4.21,3.93,5.72-4.78,5,4.78,5-3.93,5.71,5.5,4.22-3,6.25,6.1,3.31-2,6.65,6.53,2.31-.91,6.87,6.82,1.26.18,6.93,6.93.18,1.26,6.82,6.87-.91,2.31,6.53,6.65-2,3.31,6.1,6.25-3,4.22,5.5,5.71-3.93,5,4.78,5-4.78,5.72,3.93,4.21-5.5,6.26,3,3.3-6.1,6.65,2,2.31-6.53,6.87.91,1.27-6.82,6.92-.18.18-6.93,6.82-1.26-.91-6.87,6.54-2.31-2-6.65,6.09-3.31-3-6.25,5.5-4.22-3.92-5.71,4.77-5-4.77-5,3.92-5.72-5.5-4.21,3-6.26-6.09-3.3,2-6.65-6.54-2.31.91-6.87-6.82-1.27-.18-6.92-6.92-.18-1.27-6.82-6.87.91L449,392l-6.65,2-3.3-6.09-6.26,3-4.21-5.5-5.72,3.92-5-4.77Z" transform="translate(-349.21 -384.5)"/><path class="cls-1" d="M390.72,437.81h-4.36v21.36l-1.95-3.3-10.74-18.06h-6.11v30.66H372V446c.37.65.65,1.12.83,1.42l.87,1.46,11.64,19.58h5.37V437.81Z" transform="translate(-349.21 -384.5)"/><polygon class="cls-1" points="72.56 53.31 52.84 53.31 52.84 83.97 72.77 83.97 72.77 79.21 58.37 79.21 58.37 70.63 69.78 70.63 69.78 66.18 58.37 66.18 58.37 57.87 72.56 57.87 72.56 53.31 72.56 53.31"/><polygon class="cls-1" points="118.94 53.31 114.07 53.31 108.25 75.66 102.14 53.31 96.55 53.31 91.02 75.66 85.09 53.31 79.23 53.31 87.61 83.97 93.29 83.97 98.84 61.42 104.95 83.97 110.74 83.97 118.94 53.31 118.94 53.31"/></svg>