<svg id="Layer_1" data-name="Layer 1" xmlns="http://www.w3.org/2000/svg" viewBox="0 0 88.6 78.93"><defs><style>.cls-1{fill:none;stroke:#1f1a18;stroke-linecap:round;stroke-linejoin:round;stroke-width:3px;}</style></defs><rect class="cls-1" x="1.5" y="26.33" width="32.47" height="51.09" rx="9.76"/><path class="cls-1" d="M177.16,143.56c5.19,0,6.51-3.14,6.51-4.53,0-2.92-3.52-5.57-6.44-5.57-6.86,0-19.51,0-20.37,0,1.13,0,5.61-8.32,5.61-19.75,0-8.75-6.47-10.13-6.47-10.13s-4.82-.56-4.82,9.31c0,13.39-13.93,18.1-22.37,19.74a9.68,9.68,0,0,1,1.73,5.54v31.56a9.73,9.73,0,0,1-.66,3.51h40.64c7.94,0,11.43-9.68,5.41-9.68,8.39,0,7.57-9.61.63-9.61C184.06,154,186.81,143.56,177.16,143.56Z" transform="translate(-96.57 -102.07)"/></svg>